<svg width="103" height="112" viewBox="0 0 103 112" fill="none" xmlns="http://www.w3.org/2000/svg">
<g opacity="0.5">
<path d="M35.1298 98.1253C33.9831 98.1253 33.0098 97.8719 32.2098 97.3653C31.4098 96.8586 30.7991 96.1546 30.3778 95.2533C29.9618 94.3519 29.7538 93.3093 29.7538 92.1253C29.7538 90.9413 29.9618 89.8986 30.3778 88.9973C30.7991 88.0959 31.4098 87.3919 32.2098 86.8853C33.0098 86.3786 33.9831 86.1253 35.1298 86.1253C36.4631 86.1253 37.5591 86.4639 38.4178 87.1413C39.2818 87.8186 39.8764 88.7306 40.2018 89.8773L38.7538 90.2613C38.5191 89.4026 38.1004 88.7253 37.4978 88.2293C36.8951 87.7333 36.1058 87.4853 35.1298 87.4853C34.2711 87.4853 33.5564 87.6799 32.9858 88.0693C32.4151 88.4586 31.9858 89.0026 31.6978 89.7013C31.4098 90.3946 31.2631 91.2026 31.2578 92.1253C31.2524 93.0426 31.3938 93.8506 31.6818 94.5493C31.9698 95.2426 32.4018 95.7866 32.9778 96.1813C33.5538 96.5706 34.2711 96.7653 35.1298 96.7653C36.1058 96.7653 36.8951 96.5173 37.4978 96.0213C38.1004 95.5199 38.5191 94.8426 38.7538 93.9893L40.2018 94.3733C39.8764 95.5146 39.2818 96.4266 38.4178 97.1093C37.5591 97.7866 36.4631 98.1253 35.1298 98.1253ZM44.5723 98.1253C43.9269 98.1253 43.3856 98.0079 42.9483 97.7733C42.5163 97.5333 42.1883 97.2186 41.9643 96.8293C41.7456 96.4399 41.6363 96.0133 41.6363 95.5493C41.6363 95.0959 41.7216 94.7039 41.8923 94.3733C42.0683 94.0373 42.3136 93.7599 42.6283 93.5413C42.9429 93.3173 43.3189 93.1413 43.7563 93.0133C44.1669 92.9013 44.6256 92.8053 45.1323 92.7253C45.6443 92.6399 46.1616 92.5626 46.6843 92.4933C47.2069 92.4239 47.6949 92.3573 48.1483 92.2933L47.6363 92.5893C47.6523 91.8213 47.4976 91.2533 47.1723 90.8853C46.8523 90.5173 46.2976 90.3333 45.5083 90.3333C44.9856 90.3333 44.5269 90.4533 44.1323 90.6933C43.7429 90.9279 43.4683 91.3119 43.3083 91.8453L41.9563 91.4373C42.1643 90.6799 42.5669 90.0853 43.1643 89.6533C43.7616 89.2213 44.5483 89.0053 45.5243 89.0053C46.3083 89.0053 46.9803 89.1466 47.5403 89.4293C48.1056 89.7066 48.5109 90.1279 48.7563 90.6933C48.8789 90.9599 48.9563 91.2506 48.9883 91.5653C49.0203 91.8746 49.0363 92.1999 49.0363 92.5413V97.8853H47.7723V95.8133L48.0683 96.0053C47.7429 96.7039 47.2869 97.2319 46.7003 97.5893C46.1189 97.9466 45.4096 98.1253 44.5723 98.1253ZM44.7883 96.9333C45.3003 96.9333 45.7429 96.8426 46.1163 96.6613C46.4949 96.4746 46.7989 96.2319 47.0283 95.9333C47.2576 95.6293 47.4069 95.2986 47.4763 94.9413C47.5563 94.6746 47.5989 94.3786 47.6043 94.0533C47.6149 93.7226 47.6203 93.4693 47.6203 93.2933L48.1163 93.5093C47.6523 93.5733 47.1963 93.6346 46.7483 93.6933C46.3003 93.7519 45.8763 93.8159 45.4763 93.8853C45.0763 93.9493 44.7163 94.0266 44.3963 94.1173C44.1616 94.1919 43.9403 94.2879 43.7323 94.4053C43.5296 94.5226 43.3643 94.6746 43.2363 94.8613C43.1136 95.0426 43.0523 95.2693 43.0523 95.5413C43.0523 95.7759 43.1109 95.9999 43.2283 96.2133C43.3509 96.4266 43.5376 96.5999 43.7883 96.7333C44.0443 96.8666 44.3776 96.9333 44.7883 96.9333ZM55.2443 98.1253C54.4336 98.1253 53.7509 97.9253 53.1963 97.5253C52.6416 97.1199 52.2203 96.5733 51.9323 95.8853C51.6496 95.1919 51.5083 94.4159 51.5083 93.5573C51.5083 92.6879 51.6496 91.9093 51.9323 91.2213C52.2203 90.5333 52.6416 89.9919 53.1963 89.5973C53.7563 89.2026 54.4416 89.0053 55.2523 89.0053C56.0523 89.0053 56.7403 89.2053 57.3163 89.6053C57.8976 89.9999 58.3429 90.5413 58.6523 91.2293C58.9616 91.9173 59.1163 92.6933 59.1163 93.5573C59.1163 94.4213 58.9616 95.1973 58.6523 95.8853C58.3429 96.5733 57.8976 97.1199 57.3163 97.5253C56.7403 97.9253 56.0496 98.1253 55.2443 98.1253ZM51.2683 97.8853V86.3653H52.7003V91.5253H52.5403V97.8853H51.2683ZM55.0683 96.8213C55.6389 96.8213 56.1109 96.6773 56.4843 96.3893C56.8576 96.1013 57.1376 95.7119 57.3243 95.2213C57.5109 94.7253 57.6043 94.1706 57.6043 93.5573C57.6043 92.9493 57.5109 92.3999 57.3243 91.9093C57.1429 91.4186 56.8603 91.0293 56.4763 90.7413C56.0976 90.4533 55.6149 90.3093 55.0283 90.3093C54.4683 90.3093 54.0043 90.4479 53.6363 90.7253C53.2683 90.9973 52.9936 91.3786 52.8123 91.8693C52.6309 92.3546 52.5403 92.9173 52.5403 93.5573C52.5403 94.1866 52.6283 94.7493 52.8043 95.2453C52.9856 95.7359 53.2629 96.1226 53.6363 96.4053C54.0096 96.6826 54.4869 96.8213 55.0683 96.8213ZM61.19 87.7173V86.2453H62.614V87.7173H61.19ZM61.19 97.8853V89.2453H62.614V97.8853H61.19ZM71.3264 97.8853V93.5573C71.3264 93.1466 71.289 92.7519 71.2144 92.3733C71.145 91.9946 71.0197 91.6559 70.8384 91.3573C70.6624 91.0533 70.4224 90.8133 70.1184 90.6373C69.8197 90.4613 69.441 90.3733 68.9824 90.3733C68.625 90.3733 68.2997 90.4346 68.0064 90.5573C67.7184 90.6746 67.4704 90.8559 67.2624 91.1013C67.0544 91.3466 66.8917 91.6559 66.7744 92.0293C66.6624 92.3973 66.6064 92.8319 66.6064 93.3333L65.6704 93.0453C65.6704 92.2079 65.8197 91.4906 66.1184 90.8933C66.4224 90.2906 66.8464 89.8293 67.3904 89.5093C67.9397 89.1839 68.585 89.0213 69.3264 89.0213C69.8864 89.0213 70.3637 89.1093 70.7584 89.2853C71.153 89.4613 71.481 89.6959 71.7424 89.9893C72.0037 90.2773 72.209 90.6026 72.3584 90.9653C72.5077 91.3226 72.6117 91.6879 72.6704 92.0613C72.7344 92.4293 72.7664 92.7786 72.7664 93.1093V97.8853H71.3264ZM65.1664 97.8853V89.2453H66.4464V91.5573H66.6064V97.8853H65.1664Z" fill="white"/>
</g>
</svg>
